<?xml version="1.0" encoding="utf-8"?>
<!-- Generator: Adobe Illustrator 26.5.0, SVG Export Plug-In . SVG Version: 6.00 Build 0)  -->
<svg version="1.1" id="Laag_1" xmlns="http://www.w3.org/2000/svg" xmlns:xlink="http://www.w3.org/1999/xlink" x="0px" y="0px"
	 viewBox="0 0 44 35" enable-background="new 0 0 44 35" xml:space="preserve">
<path fill-rule="evenodd" clip-rule="evenodd" fill="#D1CDCC" d="M35.95,0.02h-5.68V0.9c0,0.08,0.01,0.15,0.04,0.23
	c0.03,0.07,0.07,0.14,0.13,0.19c0.05,0.06,0.12,0.1,0.19,0.13c0.07,0.03,0.15,0.05,0.23,0.05h4.51c0.16,0,0.3-0.07,0.41-0.18
	c0.11-0.11,0.17-0.26,0.17-0.42V0.02z M27.4,0.02v3.2c0,0.2,0.04,0.4,0.12,0.59c0.08,0.19,0.19,0.36,0.33,0.5
	c0.14,0.14,0.31,0.26,0.5,0.33c0.19,0.08,0.39,0.12,0.59,0.12h8.33c0.41,0,0.8-0.16,1.09-0.45c0.29-0.29,0.45-0.68,0.45-1.09v-3.2
	h2.95c0.9,0,1.63,0.73,1.63,1.63v31.72c0,0.9-0.73,1.63-1.63,1.63H24.46c-0.9,0-1.63-0.73-1.63-1.63V1.65c0-0.9,0.73-1.63,1.63-1.63
	H27.4z M37.27,8.58h-8.33c-0.41,0-0.8,0.16-1.09,0.45c-0.29,0.29-0.45,0.68-0.45,1.09v9.6c0,0.41,0.16,0.8,0.45,1.09
	c0.29,0.29,0.68,0.45,1.09,0.45h6.69c0.05,0.03,0.1,0.06,0.15,0.11c0.11,0.11,0.17,0.26,0.17,0.42v5.49c0,0.16-0.06,0.31-0.17,0.42
	c-0.11,0.11-0.26,0.17-0.42,0.17h-4.51c-0.08,0-0.15-0.02-0.23-0.05c-0.07-0.03-0.14-0.07-0.19-0.13c-0.05-0.06-0.1-0.12-0.13-0.19
	c-0.03-0.07-0.04-0.15-0.04-0.23v-2.48c0-0.05-0.01-0.11-0.03-0.16c-0.02-0.05-0.05-0.1-0.09-0.13c-0.04-0.04-0.08-0.07-0.13-0.09
	c-0.05-0.02-0.1-0.03-0.16-0.03h-2.03c-0.11,0-0.22,0.04-0.29,0.12s-0.12,0.18-0.12,0.29v4.82c0,0.41,0.16,0.8,0.45,1.09
	c0.29,0.29,0.68,0.45,1.09,0.45h8.33c0.41,0,0.8-0.16,1.09-0.45c0.29-0.29,0.45-0.68,0.45-1.09v-9.83c0-0.02,0-0.04,0-0.05v-9.6
	c0-0.41-0.16-0.8-0.45-1.09C38.07,8.74,37.68,8.58,37.27,8.58z M35.95,17.39c0,0.16-0.06,0.31-0.17,0.42
	c-0.11,0.11-0.26,0.17-0.41,0.18h-4.51c-0.08,0-0.15-0.02-0.23-0.05c-0.07-0.03-0.14-0.07-0.19-0.13c-0.05-0.06-0.1-0.12-0.13-0.19
	c-0.03-0.07-0.04-0.15-0.04-0.23v-5.13c0-0.08,0.01-0.15,0.04-0.23c0.03-0.07,0.07-0.14,0.13-0.19c0.05-0.05,0.12-0.1,0.19-0.13
	c0.07-0.03,0.15-0.04,0.23-0.04h4.51c0.16,0,0.31,0.06,0.42,0.17c0.11,0.11,0.17,0.26,0.17,0.42L35.95,17.39z"/>
<path fill-rule="evenodd" clip-rule="evenodd" fill="#D1CDCC" d="M1.63,0h17.29c0.9,0,1.63,0.73,1.63,1.63v31.72
	c0,0.9-0.73,1.63-1.63,1.63H1.63c-0.9,0-1.63-0.73-1.63-1.63V1.63C0,0.73,0.73,0,1.63,0z M15.56,12.79h-2.03
	c-0.06,0-0.11-0.01-0.16-0.03c-0.05-0.02-0.1-0.05-0.14-0.09c-0.04-0.04-0.07-0.09-0.09-0.14c-0.02-0.05-0.03-0.11-0.03-0.16V9.89
	c0-0.16-0.06-0.31-0.17-0.42c-0.11-0.11-0.26-0.17-0.42-0.17h-4.5c-0.16,0-0.31,0.06-0.42,0.17C7.49,9.58,7.43,9.73,7.43,9.89v15.2
	c0,0.16,0.06,0.31,0.17,0.42c0.11,0.11,0.26,0.17,0.42,0.17h4.5c0.16,0,0.31-0.06,0.42-0.17c0.11-0.11,0.17-0.26,0.17-0.42v-2.48
	c0-0.11,0.04-0.22,0.12-0.29c0.08-0.08,0.18-0.12,0.29-0.12h2.03c0.11,0,0.22,0.04,0.29,0.12c0.08,0.08,0.12,0.18,0.12,0.29v4.82
	c0,0.41-0.16,0.8-0.45,1.09c-0.29,0.29-0.68,0.45-1.09,0.45H6.11c-0.41,0-0.8-0.16-1.09-0.45c-0.29-0.29-0.45-0.68-0.45-1.09V7.56
	c0-0.41,0.16-0.8,0.45-1.09C5.31,6.19,5.7,6.02,6.11,6.02h8.33c0.2,0,0.4,0.04,0.59,0.12c0.19,0.08,0.36,0.19,0.5,0.33
	c0.14,0.14,0.26,0.31,0.33,0.5c0.08,0.19,0.12,0.39,0.12,0.59v4.82c0,0.11-0.04,0.22-0.12,0.29C15.78,12.75,15.67,12.79,15.56,12.79
	z"/>
</svg>
